<svg width="49" height="49" viewBox="0 0 49 49" fill="none" xmlns="http://www.w3.org/2000/svg">
<g clip-path="url(#clip0_599_374)">
<path d="M15.088 2.25362C14.1441 2.64997 13.2267 3.10702 12.3418 3.62189C15.1571 4.56691 18.3131 6.27519 20.242 13.7614C20.4167 13.6884 20.5913 13.6153 20.7659 13.5423C23.1342 12.4836 25.7719 12.1834 28.3175 12.6828C28.6568 12.7557 28.9756 12.9038 29.2502 13.116C29.5249 13.3283 29.7485 13.5994 29.9046 13.9093C30.0608 14.2193 30.1455 14.5604 30.1526 14.9074C30.1597 15.2545 30.0889 15.5987 29.9456 15.9148C29.7124 16.407 29.3155 16.803 28.8227 17.0349C28.3299 17.2669 27.7718 17.3205 27.2438 17.1866C25.7391 16.8333 24.1605 16.9751 22.7427 17.5907C20.957 18.3378 19.5413 19.7635 18.8069 21.5544C18.0725 23.3453 18.0796 25.3545 18.8266 27.1401C19.5736 28.9258 20.9994 30.3415 22.7902 31.0759C24.5811 31.8103 26.5904 31.8032 28.376 31.0562C29.8127 30.4798 31.0217 29.4497 31.819 28.1228C32.0939 27.6496 32.5248 27.2869 33.0379 27.0968C33.551 26.9066 34.1142 26.901 34.631 27.0808C34.9566 27.1996 35.2514 27.3898 35.4937 27.6376C35.736 27.8854 35.9197 28.1843 36.0312 28.5125C36.1427 28.8406 36.1791 29.1896 36.1379 29.5337C36.0967 29.8778 35.9788 30.2082 35.7929 30.5008C34.3578 32.686 32.2761 34.3683 29.8383 35.3128L29.6878 35.3758C31.3752 40.0689 33.6228 40.7562 35.9748 41.4563C37.2525 41.7624 38.4615 42.3056 39.5389 43.0575C44.0039 39.4113 47.0071 34.2795 47.9991 28.6008C48.9912 22.9221 47.9058 17.0761 44.9416 12.1319C41.9773 7.18768 37.3323 3.47585 31.856 1.67524C26.3797 -0.125368 20.4382 0.10559 15.1183 2.32588L15.088 2.25362Z" fill="white"/>
<path d="M35.1355 44.1216C32.5227 43.3395 29.3824 42.396 27.1785 36.7726C27.106 36.5904 26.9745 36.4379 26.805 36.3394C26.6355 36.241 26.4378 36.2023 26.2437 36.2296C23.7427 36.5683 21.1991 36.0895 18.9924 34.8645C16.7857 33.6396 15.0341 31.7342 13.9987 29.4324C12.9634 27.1307 12.6998 24.5559 13.2472 22.0921C13.7947 19.6283 15.1239 17.4075 17.0366 15.7608C17.2299 15.589 17.3709 15.3664 17.4435 15.1183C17.5161 14.8701 17.5175 14.6066 17.4474 14.3577C15.7093 7.59836 13.1633 6.82369 10.4761 6.01608C10.1119 5.90664 9.7306 5.7902 9.35029 5.65918C4.82622 9.27361 1.76172 14.4021 0.722038 20.0985C-0.317643 25.7951 0.737623 31.6754 3.69319 36.655C6.64877 41.6345 11.3053 45.3774 16.8039 47.1932C22.3024 49.009 28.2721 48.7753 33.6119 46.5351C34.7895 46.0421 35.9267 45.4575 37.0129 44.7868C36.4057 44.5157 35.7779 44.2933 35.1355 44.1216Z" fill="url(#paint0_linear_599_374)"/>
</g>
<defs>
<linearGradient id="paint0_linear_599_374" x1="-0.137003" y1="22.2733" x2="40.1141" y2="34.9133" gradientUnits="userSpaceOnUse">
<stop stop-color="#0500FF"/>
<stop offset="1" stop-color="white"/>
</linearGradient>
<clipPath id="clip0_599_374">
<rect width="49" height="49" fill="white"/>
</clipPath>
</defs>
</svg>
