<svg width="1046" height="208" viewBox="0 0 1046 208" fill="none" xmlns="http://www.w3.org/2000/svg">
<g clip-path="url(#clip0_2_20)">
<mask id="mask0_2_20" style="mask-type:luminance" maskUnits="userSpaceOnUse" x="1" y="0" width="208" height="208">
<path d="M209 0H1V208H209V0Z" fill="white"/>
</mask>
<g mask="url(#mask0_2_20)">
<path d="M63.8166 9.37305C59.8868 11.0219 56.0673 12.9232 52.3832 15.0651C64.1043 18.9963 77.2438 26.1028 85.2745 57.2453C86.0018 56.9416 86.7287 56.6375 87.4556 56.3339C97.3157 51.9297 108.297 50.6808 118.896 52.7583C120.308 53.0616 121.635 53.6777 122.779 54.5605C123.922 55.4436 124.853 56.571 125.503 57.8606C126.154 59.1502 126.506 60.5692 126.536 62.0127C126.565 63.4566 126.271 64.8885 125.674 66.2035C124.703 68.251 123.051 69.8984 120.999 70.8631C118.947 71.8282 116.624 72.0512 114.425 71.4942C108.161 70.0244 101.589 70.6143 95.6858 73.1752C88.2513 76.2832 82.3572 82.2141 79.2996 89.6642C76.2421 97.1143 76.2716 105.473 79.3817 112.901C82.4917 120.329 88.4278 126.219 95.8835 129.274C103.34 132.329 111.705 132.299 119.139 129.192C125.121 126.794 130.154 122.509 133.474 116.989C134.618 115.02 136.412 113.511 138.548 112.721C140.684 111.929 143.029 111.906 145.181 112.654C146.536 113.148 147.764 113.939 148.773 114.97C149.781 116.001 150.546 117.245 151.01 118.61C151.475 119.975 151.626 121.427 151.455 122.858C151.283 124.29 150.792 125.664 150.018 126.881C144.043 135.972 135.377 142.97 125.227 146.899L124.601 147.161C131.626 166.685 140.983 169.544 150.776 172.456C156.095 173.729 161.129 175.989 165.614 179.117C184.203 163.949 196.707 142.601 200.837 118.977C204.967 95.3538 200.448 71.0345 188.107 50.4666C175.766 29.8987 156.427 14.4575 133.628 6.96699C110.828 -0.523555 86.0913 0.437227 63.9427 9.67365L63.8166 9.37305Z" fill="black"/>
<path d="M147.285 183.543C136.407 180.29 123.333 176.365 114.157 152.972C113.855 152.214 113.308 151.579 112.602 151.169C111.897 150.76 111.073 150.599 110.265 150.713C99.8528 152.122 89.2629 150.13 80.0757 145.034C70.8884 139.938 63.5959 132.012 59.2852 122.436C54.9749 112.861 53.8774 102.15 56.1564 91.9006C58.4359 81.6512 63.9698 72.4127 71.933 65.5624C72.7378 64.8477 73.3248 63.9217 73.6271 62.8896C73.9294 61.8571 73.9352 60.761 73.6433 59.7255C66.407 31.6065 55.8071 28.3838 44.6194 25.0242C43.1031 24.5689 41.5157 24.0845 39.9324 23.5395C21.0971 38.5755 8.33853 59.9098 4.00996 83.6073C-0.318592 107.305 4.07485 131.767 16.3799 152.482C28.685 173.197 48.0716 188.767 70.9642 196.321C93.8564 203.875 118.71 202.903 140.942 193.584C145.844 191.533 150.579 189.101 155.101 186.311C152.573 185.183 149.96 184.258 147.285 183.543Z" fill="url(#paint0_linear_2_20)"/>
</g>
<path d="M302 165C298.467 165 296.7 163.233 296.7 159.7V41.4C296.7 37.8667 298.467 36.1 302 36.1C304.533 36.1 306.533 37.2667 308 39.6L357.8 115.7L355.4 116L405.2 39.6C406.6 37.2667 408.7 36.1 411.5 36.1C414.633 36.1 416.2 37.8667 416.2 41.4V159.7C416.2 163.233 414.467 165 411 165C407.467 165 405.7 163.233 405.7 159.7V51.9L408.8 52.9L362.6 123.3C361.133 125.567 359.033 126.7 356.3 126.7C353.9 126.7 351.967 125.567 350.5 123.3L304.3 52.9L307.2 54V159.7C307.2 163.233 305.467 165 302 165ZM443.436 164.5C440.236 163.1 439.269 160.767 440.536 157.5L490.136 40.2C491.203 37.4667 493.169 36.1 496.036 36.1H496.636C499.369 36.1667 501.303 37.5333 502.436 40.2L552.036 157.5C553.369 160.767 552.436 163.1 549.236 164.5C545.969 165.833 543.703 164.9 542.436 161.7L529.136 130.2H463.636L450.336 161.7C449.003 164.9 446.703 165.833 443.436 164.5ZM467.936 119.7H524.736L496.336 52.7L467.936 119.7ZM611.733 165C609.466 165 607.833 163.8 606.833 161.4L554.933 43.6C554.066 41.6667 554.066 40.0667 554.933 38.8C555.866 37.5333 557.133 36.7333 558.733 36.4C561.466 35.7333 563.366 36.7333 564.433 39.4L614.433 152.8H610.733L660.433 39.4C661.499 36.7333 663.433 35.7333 666.233 36.4C667.966 36.7333 669.233 37.5333 670.033 38.8C670.833 40.0667 670.833 41.6667 670.033 43.6L617.933 161.4C616.933 163.8 615.233 165 612.833 165H611.733ZM697.313 165C693.779 165 692.013 163.233 692.013 159.7V41.4C692.013 37.8667 693.779 36.1 697.313 36.1H772.213C775.746 36.1 777.513 37.8667 777.513 41.4C777.513 44.8667 775.746 46.6 772.213 46.6H702.513V94.5H748.613C752.146 94.5 753.913 96.2333 753.913 99.7C753.913 103.233 752.146 105 748.613 105H702.513V154.5H772.213C775.746 154.5 777.513 156.233 777.513 159.7C777.513 163.233 775.746 165 772.213 165H697.313ZM809.422 165C805.889 165 804.122 163.233 804.122 159.7V41.4C804.122 37.8667 805.889 36.1 809.422 36.1C811.289 36.1 813.089 37.1333 814.822 39.2L899.522 148H897.122V41.4C897.122 37.8667 898.889 36.1 902.422 36.1C905.889 36.1 907.622 37.8667 907.622 41.4V159.7C907.622 163.233 905.889 165 902.422 165C900.489 165 898.689 163.967 897.022 161.9L812.222 53.1H814.622V159.7C814.622 163.233 812.889 165 809.422 165Z" fill="black"/>
</g>
<defs>
<linearGradient id="paint0_linear_2_20" x1="0.433479" y1="92.654" x2="167.988" y2="145.313" gradientUnits="userSpaceOnUse">
<stop stop-color="#0500FF"/>
<stop offset="1" stop-color="white"/>
</linearGradient>
<clipPath id="clip0_2_20">
<rect width="1045" height="208" fill="white" transform="translate(1)"/>
</clipPath>
</defs>
</svg>
