<svg width="1046" height="208" viewBox="0 0 1046 208" fill="none" xmlns="http://www.w3.org/2000/svg">
<g clip-path="url(#clip0_2_10)">
<mask id="mask0_2_10" style="mask-type:luminance" maskUnits="userSpaceOnUse" x="1" y="0" width="204" height="208">
<path d="M204.614 0H1V208H204.614V0Z" fill="white"/>
</mask>
<g mask="url(#mask0_2_10)">
<path d="M63.6964 9.37306C59.7741 11.0219 55.9619 12.9232 52.2849 15.0651C63.9835 18.9963 77.0979 26.1028 85.1132 57.2453C85.8391 56.9417 86.5646 56.6376 87.2902 56.3339C97.1314 51.9297 108.092 50.6809 118.67 52.7584C120.08 53.0616 121.405 53.6777 122.546 54.5605C123.687 55.4436 124.616 56.5714 125.265 57.8606C125.914 59.1502 126.266 60.5692 126.295 62.0127C126.325 63.4566 126.031 64.8885 125.435 66.2035C124.466 68.251 122.817 69.8984 120.769 70.8631C118.721 71.8282 116.402 72.0512 114.208 71.4942C107.956 70.0244 101.396 70.6143 95.5045 73.1752C88.0843 76.2832 82.2015 82.2141 79.1498 89.6642C76.0981 97.1144 76.1276 105.473 79.2316 112.901C82.3357 120.329 88.2605 126.219 95.7019 129.274C103.144 132.329 111.493 132.299 118.913 129.192C124.883 126.794 129.907 122.509 133.22 116.989C134.362 115.02 136.153 113.511 138.285 112.721C140.417 111.929 142.757 111.906 144.905 112.654C146.258 113.148 147.483 113.939 148.49 114.97C149.497 116.001 150.26 117.245 150.723 118.61C151.187 119.975 151.338 121.427 151.167 122.858C150.995 124.29 150.506 125.664 149.733 126.881C143.77 135.972 135.119 142.97 124.989 146.899L124.364 147.161C131.376 166.685 140.715 169.544 150.489 172.456C155.798 173.73 160.822 175.989 165.299 179.117C183.853 163.949 196.332 142.601 200.454 118.977C204.577 95.3539 200.067 71.0345 187.749 50.4666C175.432 29.8988 156.13 14.4575 133.374 6.967C110.618 -0.523541 85.9285 0.437245 63.8223 9.67366L63.6964 9.37306Z" fill="white"/>
<path d="M147.005 183.543C136.148 180.29 123.099 176.365 113.941 152.972C113.639 152.214 113.093 151.579 112.389 151.169C111.684 150.76 110.863 150.599 110.056 150.713C99.6637 152.122 89.094 150.13 79.9244 145.034C70.7547 139.938 63.4761 132.012 59.1736 122.436C54.8716 112.861 53.7762 102.15 56.0509 91.9006C58.3259 81.6512 63.8493 72.4127 71.7973 65.5624C72.6005 64.8477 73.1864 63.9217 73.4881 62.8896C73.7898 61.8571 73.7956 60.761 73.5043 59.7255C66.2818 31.6065 55.7022 28.3838 44.5359 25.0242C43.0225 24.5689 41.4382 24.0845 39.8579 23.5395C21.0586 38.5755 8.32448 59.9098 4.0042 83.6073C-0.316068 107.305 4.06896 131.767 16.3505 152.482C28.632 173.197 47.9815 188.767 70.8303 196.321C93.6787 203.875 118.485 202.903 140.674 193.584C145.567 191.533 150.293 189.101 154.806 186.311C152.283 185.183 149.674 184.258 147.005 183.543Z" fill="url(#paint0_linear_2_10)"/>
</g>
<path d="M302 165C298.467 165 296.7 163.233 296.7 159.7V41.4C296.7 37.8667 298.467 36.1 302 36.1C304.533 36.1 306.533 37.2667 308 39.6L357.8 115.7L355.4 116L405.2 39.6C406.6 37.2667 408.7 36.1 411.5 36.1C414.633 36.1 416.2 37.8667 416.2 41.4V159.7C416.2 163.233 414.467 165 411 165C407.467 165 405.7 163.233 405.7 159.7V51.9L408.8 52.9L362.6 123.3C361.133 125.567 359.033 126.7 356.3 126.7C353.9 126.7 351.967 125.567 350.5 123.3L304.3 52.9L307.2 54V159.7C307.2 163.233 305.467 165 302 165ZM443.436 164.5C440.236 163.1 439.269 160.767 440.536 157.5L490.136 40.2C491.203 37.4667 493.169 36.1 496.036 36.1H496.636C499.369 36.1667 501.303 37.5333 502.436 40.2L552.036 157.5C553.369 160.767 552.436 163.1 549.236 164.5C545.969 165.833 543.703 164.9 542.436 161.7L529.136 130.2H463.636L450.336 161.7C449.003 164.9 446.703 165.833 443.436 164.5ZM467.936 119.7H524.736L496.336 52.7L467.936 119.7ZM611.733 165C609.466 165 607.833 163.8 606.833 161.4L554.933 43.6C554.066 41.6667 554.066 40.0667 554.933 38.8C555.866 37.5333 557.133 36.7333 558.733 36.4C561.466 35.7333 563.366 36.7333 564.433 39.4L614.433 152.8H610.733L660.433 39.4C661.499 36.7333 663.433 35.7333 666.233 36.4C667.966 36.7333 669.233 37.5333 670.033 38.8C670.833 40.0667 670.833 41.6667 670.033 43.6L617.933 161.4C616.933 163.8 615.233 165 612.833 165H611.733ZM697.313 165C693.779 165 692.013 163.233 692.013 159.7V41.4C692.013 37.8667 693.779 36.1 697.313 36.1H772.213C775.746 36.1 777.513 37.8667 777.513 41.4C777.513 44.8667 775.746 46.6 772.213 46.6H702.513V94.5H748.613C752.146 94.5 753.913 96.2333 753.913 99.7C753.913 103.233 752.146 105 748.613 105H702.513V154.5H772.213C775.746 154.5 777.513 156.233 777.513 159.7C777.513 163.233 775.746 165 772.213 165H697.313ZM809.422 165C805.889 165 804.122 163.233 804.122 159.7V41.4C804.122 37.8667 805.889 36.1 809.422 36.1C811.289 36.1 813.089 37.1333 814.822 39.2L899.522 148H897.122V41.4C897.122 37.8667 898.889 36.1 902.422 36.1C905.889 36.1 907.622 37.8667 907.622 41.4V159.7C907.622 163.233 905.889 165 902.422 165C900.489 165 898.689 163.967 897.022 161.9L812.222 53.1H814.622V159.7C814.622 163.233 812.889 165 809.422 165Z" fill="white"/>
</g>
<defs>
<linearGradient id="paint0_linear_2_10" x1="0.434562" y1="92.654" x2="167.726" y2="145.13" gradientUnits="userSpaceOnUse">
<stop stop-color="#0500FF"/>
<stop offset="1" stop-color="white"/>
</linearGradient>
<clipPath id="clip0_2_10">
<rect width="1043" height="208" fill="white" transform="translate(1)"/>
</clipPath>
</defs>
</svg>
