<svg width="56" height="56" viewBox="0 0 56 56" fill="none" xmlns="http://www.w3.org/2000/svg">
<path d="M51.8424 33.5053C51.2257 31.3887 50.384 29.3795 49.3766 27.519C50.297 26.2217 50.8607 24.6473 50.9024 23.1147C50.98 20.2694 49.2939 17.908 47.4703 17.2231C47.3438 16.6664 47.1036 16.1703 46.8721 15.7426C44.9014 12.0971 41.4039 9.85296 37.5152 9.73968C35.5654 9.69085 32.9635 10.317 31.0923 11.2872C28.3189 5.67524 20.9832 4.18532 16.1956 8.42413C16.0348 8.51849 15.8721 8.60693 15.7144 8.7116C11.5141 11.5488 10.3524 17.1724 13.0427 21.3889C11.1521 22.4862 9.06818 24.5466 8.08649 26.2905C6.1778 29.6811 6.29596 33.8354 8.40241 37.4037C8.64948 37.8227 8.95075 38.2836 9.36237 38.6801C9.00693 40.5758 10.1471 43.2498 12.6387 44.6586C13.7979 45.3139 15.1871 45.6528 16.5714 45.6528C16.8192 45.6528 17.0643 45.6205 17.3105 45.5986C17.3658 45.692 17.4121 45.7807 17.4703 45.8754C18.8531 48.1284 20.4088 49.5483 21.4127 49.5473C21.5544 49.5473 21.6821 49.5127 21.7996 49.4546L21.7928 49.4703L21.9858 49.3827C23.5909 51.1469 24.9978 52.1225 25.9219 52.1225C26.2545 52.1225 26.5375 51.9981 26.7304 51.7173C34.724 46.4952 30.1323 49.557 51.2481 35.1088C51.7868 34.7367 52.0041 34.0615 51.8424 33.5053ZM33.7911 45.895C32.4781 39.3569 29.2637 34.2524 24.2374 30.7221C24.0988 30.6243 23.9476 30.5546 23.7906 30.5066L39.1575 20.7354C39.2702 20.7601 39.3767 20.8098 39.4741 20.8732C44.0953 23.9472 47.769 29.2143 49.7234 35.2311C49.7534 35.3244 49.7518 35.4221 49.7594 35.5192L33.7945 46.4419C33.8222 46.2615 33.8278 46.0778 33.7911 45.895ZM42.8376 20.4472C42.8376 20.5157 42.7097 20.5712 42.5519 20.5712C42.3942 20.5712 42.2663 20.5157 42.2663 20.4472C42.2663 20.3787 42.3942 20.3233 42.5519 20.3233C42.7097 20.3233 42.8376 20.3787 42.8376 20.4472ZM41.0958 20.1831C41.2481 20.1831 41.3716 20.27 41.3716 20.3771C41.3716 20.4842 41.2481 20.5712 41.0958 20.5712C40.9435 20.5712 40.8201 20.4842 40.8201 20.3771C40.8201 20.27 40.9435 20.1831 41.0958 20.1831ZM41.9752 21.3742C41.9752 21.4011 41.9222 21.4228 41.8567 21.4228C41.7911 21.4228 41.7381 21.4011 41.7381 21.3742C41.7381 21.3475 41.7911 21.3257 41.8567 21.3257C41.9222 21.3257 41.9752 21.3475 41.9752 21.3742ZM51.2811 33.4136C51.2895 33.5156 51.2944 33.6177 51.2849 33.7206C51.2376 34.231 50.9251 34.7095 50.4767 34.958C50.7426 34.1813 50.8783 33.3038 50.6182 32.5252C50.5006 32.619 50.3831 32.7128 50.2656 32.8065C50.3828 32.2084 50.3508 31.5815 50.1733 30.9985C50.0658 31.1015 49.9583 31.2045 49.8509 31.3075C49.8246 30.6512 49.7816 30.0067 49.7507 29.3536C50.3696 30.6838 50.871 32.0409 51.2811 33.4136ZM46.4576 19.5893C46.0123 20.0297 45.3243 20.1186 44.9854 19.7768C44.6549 19.4457 44.6832 18.7319 45.0465 18.2494C45.452 17.7115 46.2065 17.4014 47.0333 17.6088C47.1506 18.4169 46.8851 19.1657 46.4576 19.5893ZM24.2716 6.64788C29.1796 7.58563 32.3679 12.3088 31.4019 17.2114C30.9346 19.5815 29.5718 21.6323 27.564 22.9877C23.4629 25.753 17.8259 24.7721 15.0045 20.5922C13.6578 18.5971 13.1734 16.1938 13.6402 13.8256C14.5961 8.97703 19.3009 5.70634 24.2716 6.64788ZM17.4487 24.1514C17.3643 23.9932 17.4241 23.7963 17.5825 23.7118C17.5903 23.7076 17.599 23.7129 17.6071 23.7095C17.7488 23.7935 17.8869 23.8832 18.0331 23.9597C18.0817 24.3615 17.6013 24.4375 17.4487 24.1514ZM15.7725 22.9254C15.9882 22.8103 16.2562 22.8918 16.3712 23.1075C16.4862 23.3231 16.4047 23.5911 16.189 23.7062C15.9735 23.8212 15.7054 23.7397 15.5904 23.524C15.4753 23.3084 15.5569 23.0403 15.7725 22.9254ZM12.8848 44.2231C10.7679 43.0263 9.66087 40.8185 9.81403 39.0512C10.4986 39.5229 11.3223 39.6977 12.0347 39.517C12.9146 39.2944 13.502 38.4828 13.3174 37.7465C13.1407 37.0444 12.2999 36.5483 11.44 36.6352C10.6391 36.7184 9.86546 37.2713 9.52204 38.1254C9.24274 37.8139 9.02155 37.4692 8.83307 37.1498C6.81794 33.7368 6.70173 29.769 8.52204 26.5366C9.46589 24.8588 11.4747 22.8754 13.2979 21.8198C13.3074 21.8142 13.308 21.8019 13.3165 21.7954C15.9627 25.5112 20.8956 26.6865 24.934 24.7105C25.9557 24.4373 26.9404 24.0112 27.8433 23.4018C29.9615 21.9721 31.3995 19.808 31.8926 17.308C32.2679 15.4028 32.0566 13.4778 31.3079 11.7375C33.1103 10.7986 35.6309 10.1898 37.5006 10.2397C41.2086 10.3481 44.5474 12.4936 46.4327 15.9809C46.609 16.3071 46.7906 16.6743 46.9132 17.0746C46.0719 16.944 45.1577 17.2726 44.647 17.9487C44.1275 18.6391 44.1202 19.6176 44.6309 20.1303C45.1656 20.6674 46.1646 20.5825 46.8091 19.9448C47.3297 19.4291 47.607 18.6313 47.5552 17.8022C49.1504 18.582 50.4687 20.67 50.4024 23.101C50.3654 24.457 49.8885 25.8459 49.1093 27.0212C47.2917 23.8147 44.9501 21.102 42.2857 19.2045C41.7969 18.8563 41.1407 18.8835 40.7125 19.1547L22.6412 30.5864C22.6325 30.5919 22.6325 30.6033 22.6247 30.6096C22.5651 30.6378 22.5018 30.6533 22.4449 30.6889L15.9332 34.7768C15.9058 34.7939 15.8995 34.8251 15.8814 34.8495C15.0416 35.4786 15.2369 37.5431 16.405 40.4526L16.2114 40.6107L16.2289 40.618C15.158 41.4007 16.3974 43.9734 17.0408 45.1313C15.591 45.2185 14.1027 44.9115 12.8848 44.2231ZM9.91706 38.5043C10.1674 37.6879 10.826 37.2013 11.4918 37.1332C12.1036 37.0649 12.7188 37.4135 12.8321 37.8676C12.9493 38.3344 12.5191 38.8784 11.9117 39.0326C11.3313 39.1769 10.5607 39.0244 9.91706 38.5043ZM17.8961 45.6137C17.8822 45.5911 17.8716 45.5704 17.858 45.5478C18.1234 45.506 18.3812 45.4375 18.6389 45.369C19.0565 46.0001 19.4648 46.2847 19.6395 46.1776C19.8261 46.063 19.6484 45.5426 19.2014 44.8141C18.7543 44.0857 18.3998 43.8036 18.2132 43.9181C18.0563 44.0144 18.1026 44.3844 18.3817 44.9288C18.1205 44.993 17.8558 45.0434 17.587 45.0789C14.5034 39.6836 17.4306 39.1472 20.9112 46.0839C21.1902 46.6418 22.138 48.6721 21.6046 49.0004C21.106 49.2993 19.5425 48.2963 17.8961 45.6137ZM26.1959 51.5561C25.7158 51.8527 24.3554 51.207 22.4665 49.1647L22.6966 49.0604C22.8636 49.0039 23.0155 48.9354 23.085 48.8906C23.0888 48.8883 23.0899 48.8828 23.0936 48.8804L23.1124 48.8718L23.1054 48.8663C23.7969 48.3784 23.07 46.2219 21.3409 43.3212C19.5904 40.3638 18.1797 39.1527 17.4439 39.6047L16.8113 40.121C15.7174 37.3322 15.6582 35.5471 16.2081 35.2133C16.3292 35.1371 16.483 35.1244 16.6783 35.1703C17.9776 35.4789 20.3799 38.227 22.7989 42.1723C25.251 46.1567 26.7418 49.8618 26.4244 51.184C26.3804 51.3666 26.3062 51.4877 26.1973 51.5541L26.1959 51.5561ZM26.9348 50.9883C27.0709 49.3491 25.6664 45.8775 23.2247 41.9106C20.7858 37.9326 18.4041 35.2187 16.9437 34.733L22.7105 31.1127C23.0953 30.8725 23.5933 30.8793 23.9503 31.1303C28.8677 34.5854 32.0142 39.5854 33.3008 45.9926C33.3892 46.435 33.19 46.9008 32.8043 47.1528L26.9348 50.9883Z" fill="#5CFFB1"/>
<path d="M16.2544 19.7631C18.6122 23.2564 23.3852 24.1613 26.8916 21.7944C30.4008 19.4242 31.3403 14.6576 28.9848 11.1694C27.8437 9.47894 26.1084 8.33636 24.0991 7.95257C19.8885 7.1561 15.9069 9.92706 15.0981 14.0287C14.7021 16.0366 15.1128 18.0727 16.2544 19.7631ZM15.5883 14.1254C16.8242 7.86156 25.0323 6.20902 28.5708 11.4487C30.7715 14.7094 29.8925 19.1645 26.6118 21.3803C23.3305 23.5951 18.8701 22.7446 16.6684 19.4838C15.6025 17.9037 15.2187 16.0014 15.5883 14.1254Z" fill="#5CFFB1"/>
<path d="M21.7834 20.4407C21.8476 20.5598 22.0478 20.6246 22.1697 20.5618L23.5227 19.8753L24.0283 20.823C24.0504 20.8644 24.1015 20.8805 24.1433 20.8593L24.667 20.5932C24.7096 20.5716 24.7264 20.5192 24.7043 20.4767L24.21 19.5265L24.7311 19.2622L25.23 20.1973C25.2524 20.2392 25.3045 20.2551 25.3465 20.2327L25.8646 19.9563C25.9062 19.9341 25.9222 19.8824 25.9004 19.8406L25.4173 18.9119C26.1853 18.4976 26.6684 17.6071 26.5925 16.7415C26.5001 15.6791 25.596 14.7639 24.5769 14.6692C25.1744 13.2531 24.2031 11.7824 22.7907 11.6546C22.2601 11.6097 21.7463 11.7648 21.2702 11.9721L20.7685 11.0546C20.7371 10.9974 20.6655 10.976 20.6079 11.0067L20.1477 11.2522C20.0897 11.2832 20.0677 11.3553 20.0987 11.4134L20.5766 12.3091L20.0602 12.5827L19.5732 11.6924C19.5418 11.6351 19.4702 11.6137 19.4126 11.6444L18.9524 11.8899C18.8944 11.9209 18.8724 11.993 18.9034 12.0511L19.3795 12.9435L18.386 13.47C18.2678 13.5364 18.2082 13.7395 18.2722 13.8597L21.7834 20.4407ZM22.7458 12.1526C23.9781 12.2632 24.6904 13.6764 23.9709 14.7454C23.9031 14.844 23.905 14.9769 23.9753 15.0745C24.0359 15.1585 24.1838 15.2112 24.2864 15.1849C24.4436 15.1399 24.6282 15.1624 24.8982 15.2552C25.5432 15.4769 26.0354 16.1058 26.0945 16.7845C26.154 17.4603 25.7751 18.1565 25.178 18.4749L22.1277 20.0228L18.8127 13.8099C20.9581 12.6919 21.8296 12.0672 22.7458 12.1526Z" fill="#5CFFB1"/>
<path d="M22.7981 13.9327C22.5467 13.4615 21.961 13.2834 21.4898 13.5348L20.5364 14.0434C20.4819 14.0725 20.4613 14.1403 20.4904 14.1948L21.2889 15.6916C21.3178 15.7456 21.3846 15.7664 21.439 15.7383L22.3893 15.2467C22.8678 14.9991 23.0517 14.4081 22.7981 13.9327ZM22.9468 18.5645L23.897 18.0729C24.3756 17.8253 24.5595 17.2343 24.3059 16.7589C24.0544 16.2877 23.4688 16.1096 22.9976 16.3609L22.0442 16.8696C21.9896 16.8986 21.9691 16.9664 21.9981 17.0209L22.7966 18.5177C22.8255 18.5718 22.8924 18.5926 22.9468 18.5645ZM20.6504 21.6273C19.7116 20.9247 18.9981 19.894 18.5402 18.8419C18.5066 19.1365 18.473 19.4311 18.4393 19.7257C17.923 18.8897 17.5429 17.9726 17.3137 17.0096C17.2639 17.3392 17.2141 17.6688 17.1643 17.9985C16.7495 16.9149 16.5001 15.7215 16.4603 14.5356C15.5909 17.7436 17.3878 20.7956 20.6504 21.6273ZM23.4968 9.31805C23.6203 9.25213 23.6671 9.09857 23.6011 8.97503C23.5352 8.8515 23.3817 8.80481 23.2582 8.87073C23.1346 8.93658 23.088 9.09015 23.1538 9.21368C23.2197 9.33722 23.3733 9.38391 23.4968 9.31805ZM24.6834 9.26935C24.5497 9.01879 24.1704 9.22062 24.3043 9.47156C24.438 9.72211 24.8173 9.52028 24.6834 9.26935ZM25.0429 47.4663C25.1764 48.0577 25.1835 48.6574 25.2425 49.2608C25.3084 49.9361 25.0128 50.2137 24.3231 49.8663C24.4736 49.8218 24.6042 49.7137 24.6758 49.574C24.2788 49.549 23.8524 49.5488 23.4554 49.5237C23.8973 50.0692 25.1677 51.2134 25.7316 50.7946C26.0262 50.5757 25.95 50.1677 25.8611 49.8441C25.6386 49.0354 25.3651 48.2407 25.0429 47.4663ZM16.7223 35.8953C16.6264 35.8953 16.5487 35.973 16.5487 36.0688C16.5487 36.1647 16.6264 36.2424 16.7223 36.2424C16.8181 36.2424 16.8958 36.1647 16.8958 36.0688C16.8958 35.973 16.8181 35.8953 16.7223 35.8953ZM17.5341 36.3207C17.4228 36.3207 17.3326 36.411 17.3326 36.5223C17.3326 36.6337 17.4228 36.7239 17.5341 36.7239C17.6455 36.7239 17.7357 36.6337 17.7357 36.5223C17.7357 36.411 17.6455 36.3207 17.5341 36.3207ZM29.5958 42.2294C29.761 42.0861 29.9261 41.9427 30.0913 41.7994C30.2272 42.8154 30.1033 43.8649 29.7347 44.8213C29.9903 44.6978 30.2459 44.5744 30.5013 44.451C30.2753 45.6815 29.8332 47.154 29.6359 47.674C29.4216 48.2392 29.393 48.2606 29.4225 48.3331C29.4564 48.3829 29.533 48.3058 29.569 48.2847C29.6169 48.2567 32.3392 46.6631 32.3884 46.6343C32.004 44.1037 30.8389 41.7199 29.1348 39.4376C29.511 40.3221 29.6869 41.2725 29.5958 42.2294ZM20.6032 33.8327C20.6032 33.7396 20.4521 33.6641 20.2658 33.6641C20.0795 33.6641 19.9284 33.7396 19.9284 33.8327C19.9284 33.9259 20.0795 34.0014 20.2658 34.0014C20.4521 34.0014 20.6032 33.9259 20.6032 33.8327ZM21.656 34.0014C21.4985 34.0014 21.371 34.0587 21.371 34.1294C21.371 34.2001 21.4985 34.2573 21.656 34.2573C21.8134 34.2573 21.941 34.2001 21.941 34.1294C21.941 34.0587 21.8134 34.0014 21.656 34.0014Z" fill="#5CFFB1"/>
<path d="M20.6211 35.1409C20.7592 35.1409 20.8711 35.0965 20.8711 35.0419C20.8711 34.9872 20.7592 34.9429 20.6211 34.9429C20.483 34.9429 20.3711 34.9872 20.3711 35.0419C20.3711 35.0965 20.483 35.1409 20.6211 35.1409Z" fill="#5CFFB1"/>
<path d="M38.8771 35.7431L38.0145 32.1451C37.9926 32.0541 38.043 31.9611 38.1312 31.9296L44.128 29.7925C44.3118 29.7269 44.2797 29.4578 44.0857 29.4373L35.8668 28.5712C35.7513 28.559 35.6537 28.6559 35.6651 28.7715C36.1639 34.2329 36.2761 34.1131 36.1043 34.2292L32.5847 36.6083C32.4219 36.7183 32.5228 36.9727 32.7168 36.9413L38.7281 35.9669C38.8334 35.9498 38.902 35.8468 38.8771 35.7431ZM36.5269 31.0982C36.4378 30.3476 36.351 29.616 36.35 29.6075C36.324 29.3881 36.3165 29.0499 36.6216 29.0922C36.6645 29.0981 40.1313 29.4874 40.1744 29.4922C39.8844 29.5243 38.5757 29.4423 36.9569 30.1249C37.142 30.2052 37.3271 30.2855 37.5121 30.3658C37.1434 30.5494 36.813 30.8019 36.5269 31.0982ZM9.77093 11.143C8.92053 11.2697 8.04217 11.2051 7.21942 10.9554C6.98401 10.884 6.7453 10.7966 6.49982 10.8134C7.80115 10.237 9.242 10.0827 10.6395 9.81311C9.98389 9.28137 9.20569 8.8382 8.81006 8.09247C9.54626 8.36444 10.2657 8.65436 10.9724 8.99573C11.0175 8.95435 11.0047 8.88153 10.9886 8.82245C10.6908 7.73029 10.5078 6.60687 10.4434 5.47668C11.2344 5.84247 11.9553 6.25684 12.6488 6.78473C11.8804 5.65118 10.9021 4.66034 9.7785 3.87744C9.68274 4.22589 9.67145 4.617 9.69043 4.97784C9.73523 5.82733 9.80255 6.6756 9.89239 7.52148C9.86584 7.27161 8.93283 7.11358 8.64435 7.04785C7.79985 6.85549 6.82503 6.69963 5.96222 6.83972C5.81805 6.86316 5.61346 6.86163 5.75037 7.03076C6.34694 7.76837 7.37325 8.28438 8.13226 8.90228C8.19696 8.95496 8.55353 9.3501 8.60846 9.34186C6.98396 9.58559 5.11006 9.8775 4.10547 10.4811C4.12469 10.4903 4.14392 10.4996 4.16321 10.5088C4.14667 10.507 4.15601 10.4907 4.13947 10.4889C6.1623 12.0347 8.33295 12.0534 9.77093 11.143Z" fill="#5CFFB1"/>
</svg>
