<svg xmlns="http://www.w3.org/2000/svg" enable-background="new 0 0 56 56" viewBox="0 0 56 56"><path fill="#ff8066" d="M52.2300148 13.9679365c.1804466-2.4851103-1.1298447-3.2501583-3.3740234-2.0712891-.0810547.0410156-.1621094.0820313-.2304688.125-1.6233368.8875351-3.5799751 2.708149-4.8544922 4.0419912l-.387207.4092407c-.7206535-.6886711-1.7012444-1.3489609-2.2870483-1.623107-1.8486557-.9804153-3.1678314-1.0033035-4.3325806-.6098633-2.1751709-2.08148-5.184597-2.007431-6.6269531-.9926758-.3952637.2789917-.6981201.6415405-.9578247 1.0303955-.7767944-.1686401-1.5793457-.3312378-2.4078979.0305786-.7232056-.237793-2.4047241-.7247925-3.956543-.6635132-.5898438.0097656-1.1621094.0380859-1.6787109.2734375-.9718266.4431019-1.1791534 1.4220943-.6162109 2.2324209.5661774.8338699 2.2047729 1.5666027 3.1392822 1.9411011-.3223877.6239014-.4142456 1.0679932-.2672119 1.3938599.440691.9689178 2.4999542.2725964 3.4234619-.2784424.2211304.0780029.4158936.1539917.5951538.2304688-.0712814 1.2416153.8753853 1.5774384 1.7164917 1.019165 1.2185097.9210491 2.1315231 2.165659 2.6798096 3.5040894-1.6864166-.1679783-3.5790272-.0208359-4.6258545.2405396-1.4482422.3271484-2.3408203 1.1933594-2.3886719 2.3183594-.0272579.8601208.3417683 1.200182 1.0039063 1.2480469 4.0091286.390873 5.0887833.8743305 7.8676758 2.0910034-1.1842308 2.15135-2.5301723 4.6866779-3.4643555 7.3943501 0 .0009766-.0195313.0595703-.0205078.0605469-.4961567 1.5089264-1.388485 4.4736557-.2607422 5.5771484.3800411.4717751 1.2658653.4837875 1.7939453.3027344 1.3768425-.0917892 4.5547981-3.0049934 5.5322266-3.9824219 4.161335-4.1088066 8.9754143-10.9716892 11.4462891-15.7568378.1517639-.269804.6100883-1.1477318.6416016-1.2324219.000061-.000061.000061-.0001831.0001221-.0002441C50.4907761 19.9638672 52.0195007 16.4940872 52.2300148 13.9679365zM33.9469337 38.0728569c-.0290527.5045776-.0580444 1.0092163-.0870361 1.5137939 2.2434082-1.4219971 4.394043-2.8773193 6.1011963-4.9121704-1.7459717 2.3600464-3.5412598 4.7680054-5.9788208 6.4039917-.3348389.2247314-.6945801.4389038-1.0950928.4855957-.4005737.0466309-.8516235-.1170044-1.0269775-.4801636-.1433105-.296936-.0768433-.6482544.0012207-.9686279.2801514-1.1495361.6732788-2.2714844 1.171936-3.3443604-.1002808.9118042-.1939087 1.9181519-.2941284 2.8299561C33.141819 39.0915337 33.5443459 38.5821953 33.9469337 38.0728569zM51.0354958 15.2737226c.1274147 0 .1275444.5545044 0 .5545044C50.9080811 15.828227 50.9079514 15.2737226 51.0354958 15.2737226zM50.1916237 14.8652143c-.1730957 0-.3134155-.2000122-.3134155-.4467163s.1403198-.4467163.3134155-.4467163c.1731567 0 .3134766.2000122.3134766.4467163S50.3647804 14.8652143 50.1916237 14.8652143zM49.1050148 12.3302412c.8109627-.4267054 1.955143-.8129292 2.3972778-.0077515-2.1363373.5511351-5.3199959 3.6829729-6.7904053 5.3277578l-.1653442.1803589c-.0007935-.0006714-.0012817-.0016479-.0020752-.0023193-.2491112-.3698921-.5106773-.7012806-.7978516-1.0068359C43.8848305 16.696682 46.6913376 13.5627575 49.1050148 12.3302412zM40.5923195 15.1534834c-.0029297.0029297-.0048828.0058594-.0068359.0078125-.5706139.6563168-1.9254341 1.9365396-2.8476563 2.1953115-.3150482.0617695-.3130684.0862999-.7011719.1044922-.3613281.0126953-.4707031.0166016-.5791016.1865234-.3212891.7871094-.640625 1.4042969-1.1513672 1.8535156-.6687965.5538101-1.4307365.537714-1.6669922.3525391-.0214844-.015625-.0361328-.0263672-.0429688-.0302734.0218658-.2733078.1787338-.9392624.2197266-1.1152344.290638-1.0628529.6830025-1.8228455.7314453-1.9365234.4501953-.9101553 1.2539063-1.6367178 2.2080078-1.9980459.0234375-.0048828.046875-.0126953.0683594-.0234375.0332031-.0175781.0361328-.0185547.0507813-.0224609.0058594-.0009766.0117188-.0029297.0175781-.0048828C38.1961746 14.2691011 39.3533287 14.5570526 40.5923195 15.1534834zM20.9321632 15.8673506c-.3938904-.5680742-.2674294-1.1837578.4111328-1.4941406.4287109-.1953125.9443359-.2197266 1.484375-.2285156.9528809-.0420532 2.1589966.1591797 3.3700562.5178833-.9608917.7137003-1.6224442 1.8710489-2.2946167 2.9884024-.9002686-.3580322-1.5905151-.6980591-2.1936035-1.0883179C21.4370461 16.3780918 21.1294289 16.1564121 20.9321632 15.8673506zM23.8472023 19.279459c-.1795616-.4005585.5824451-1.5393353.8300781-1.9355469.5458984-.9042969 1.1113281-1.8388662 1.9580078-2.39746.7006836-.4595947 1.3763428-.3966064 2.2670288-.2126465-.5184326.9538183-.8693829 1.9730825-1.1488647 3.0185537C26.4592133 19.3879681 24.055645 19.7318249 23.8472023 19.279459zM27.4809914 18.9250889c-.0558472-.0227661-.1112061-.0462036-.1702881-.0689697.0747681-.0578613.1555786-.1105347.2260742-.1713257C27.520359 18.7652988 27.4961281 18.8444004 27.4809914 18.9250889zM28.5825539 20.1778965c-.1767578.0625-.3603516.0498047-.4775391-.03125-.2021484-.1376953-.2587891-.4677734-.1669922-.9824219.1875-1.0576172.4882813-2.1005859.8916016-3.0996094.6711788-1.6600933 1.3037796-2.6758718 3.0400391-2.944335 1.5894165-.2467041 3.1682739.2479248 4.3945313 1.3410034-.9164429.4321899-1.6878662 1.1537476-2.1422729 2.0513906-.7170563-.1231289-1.3465576-.2293091-2.0422974-.2293091-.3779297.0048828-.7138672.2431641-.8564453.6064453C30.5116711 18.7067261 29.0825729 20.0076199 28.5825539 20.1778965zM25.8384132 27.2696934c-.3780327-.0278873-.5663795-.1204185-.5458984-.7314453.0537109-1.2734375 1.4160156-1.7167969 2.0039063-1.8505859.996397-.2484379 3.1815891-.4458122 5.0361328-.1777344.8320313.1357422 1.6298828.3388672 2.3720703.6054688.1279297.0449219.2724609-.0205078.3193359-.1513672.046875-.1298828-.0205078-.2724609-.1513672-.3193359-.8640862-.3099308-1.8334923-.5390034-2.4989014-.632019-.538002-1.4410439-1.5130653-2.8335609-2.8474121-3.8775024.9515381-.8312988 1.7010498-1.8850098 2.1617432-3.0627441.0693359-.1757813.2216797-.2871094.3984375-.2890625.5787354.0072632 1.2512817.1061401 1.8230591.203064-.3861809.8767586-.6582603 1.7168427-.7947388 2.6670532-.0371094.2480469-.0400391.4130859.2246094.5996094.2997513.2410603.7581978.2415829 1.1396484.1816406 1.2350426-.2261753 1.9090042-1.3051987 2.3828011-2.4667969.0284348-.001894.3875885-.0131626.3652458-.0166016.2116966-.0110836.4263725-.0634155.6318359-.109375 1.058651-.2970314 2.4465675-1.5967731 3.184082-2.4487295 1.1566963.6107931 2.1200333 1.429286 2.8383789 2.3549795.0232658.0568714.5345726.7541084.7952271 1.2722778.8459778 1.6636906.7111511 3.0818558 2.2311401 4.7179565.1083984.1162109.2167969.2304688.328125.3457031L43.1443214 30.58671c-2.7839317-.9994984-3.877327.6740055-7.4638062-.4758911C32.4127731 29.0464687 31.8549862 27.8540134 25.8384132 27.2696934zM30.0776711 42.2589531c-.0234375-.0341797-.0429688-.0791016-.0634766-.1474609-.9317036-2.5422249 2.7229614-9.655777 4.1158447-12.0504169.5565033.2358952.7780724.3139305.8782959.3531494l0 0 .4039917.1373291c-1.5388451 2.7023373-3.5649586 6.7386837-4.1468506 9.7655048-.1456852.7783585-.2683086 1.7136765-.013855 2.4638672C30.580246 42.8733025 30.2898636 42.6513634 30.0776711 42.2589531zM4.1753273 39.7706718v.0009766c1.6388135 2.9613647 7.9925842 6.3496704 11.0999146 7.7451782.001709.0007935.0018921.0030518.0036011.0038452.0029297.0009766.0019531.0009766.0019531.0009766 3.1155834 1.411396 12.1802006 4.8285866 14.5859375 2.4228516.133585-.1534233.1667919-.2407646.2158203-.3447266.6726532-1.6913795-1.9138317-3.8505478-3.3397827-4.9768066.9767265-4.562912-2.1068306-9.2382927-7.0514526-9.8748779-3.3303852-1.1494255-6.7844439-.0103493-8.8297119 2.5096436-4.0118685-.9372101-5.6972451-.3783379-5.597168-.3780518-.5143957.1751213-1.0864029.3165092-1.4045408.9925537C3.5928721 38.4882126 3.8772223 39.3322792 4.1753273 39.7706718zM7.122654 39.7407646c-.2628784.1112671-.515625.2224121-.7684326.3336182.171936.0708008.3539429.1516724.5257568.2224731-.1212769-.0202637-.2426147.0708008-.28302.1920776-.0404663.1112061-.0202637.2325439.0100708.3538208.0910034.3538208.2527466.7077637.5256958.9503784-.7885132-.3943481-1.4659424-1.0110474-1.9309692-1.7692871-.4385595-.7308617-.0549765-1.0791588.6773682-1.1221924.7077026-.0202637 1.4254761.1213379 2.062439.4347534-.5459595.0100708-1.0817871.0505371-1.5873413.2324829C6.6170998 39.5183525 6.9002419 39.5790215 7.122654 39.7407646zM20.1786232 48.8683281c-1.6548386-.5291939-4.520503-1.6546593-6.6235352-2.7217407-2.9734364-4.7506866 1.488636-10.5948906 6.8419189-9.0985718 3.3470993.9361153 5.1770458 4.3574829 4.2763672 7.5253906C24.0730934 46.7266045 22.3539162 48.366375 20.1786232 48.8683281zM29.4946632 49.6105156c-.2163792.2133293-.4083862.3655167-.8533936.4746094-.1644897-.9234619-1.1141968-2.1096802-2.6420288-3.3771973.1772881-.337101.4798203-1.0478477.6174927-1.541748.1387539.1152344.8785038.6812363 1.5908203 1.3935547C28.9687176 47.3236427 30.1993294 48.7925987 29.4946632 49.6105156zM26.1616554 44.9396172c-.0015869.0078735-.0058594.0192871-.008667.0283813-.0006104.0020142-.0014648.0037231-.0020752.0057983v-.0009766c-.4890766 1.8120308-1.7529964 3.5493698-3.5517578 4.5869141-.4746647-.1143799-1.3200722-.3682785-1.5401001-.4328613 2.2948818-.8313293 3.8824997-2.8466988 4.241272-5.0690918.5810547-3.3486328-1.46875-6.5683594-4.7695313-7.4921875-5.4871616-1.5139275-10.1978083 4.0602188-7.7610474 9.1754761-.5558472-.2902222-1.0936279-.579895-1.5864868-.8652954-1.5766916-5.7243156 3.7423267-11.0285454 9.5545654-9.4176025C24.8472023 36.6017265 27.2798195 40.8556328 26.1616554 44.9396172zM4.6024513 37.7206841c1.2167974-.9378242 4.4038143-.3577194 5.9056396-.0303955-.2683716.3832397-.4993286.7984619-.6994019 1.2354736-2.3483276-.5653076-4.2966309-.7398071-5.5539551-.4785156C4.2501655 38.1414146 4.3514323 37.9081841 4.6024513 37.7206841z" class="color000000 svgShape"/><path fill="#ff8066" d="M20.3066139 40.0615044l.3078003-.8060913c.0200195-.0524292-.0059204-.1112671-.0581665-.1318359l-.4174805-.1643677c-.0526123-.020752-.1121216.005127-.1328125.0577393l-.3070068.7796021-.4676514-.1854248.2988281-.7826538c.0200195-.0524902-.0059204-.1112671-.0581665-.1318359l-.4174805-.1644287c-.0526123-.0206909-.1120605.005127-.1328125.0578003l-.3060303.7770996-.883667-.3503418c-.1436386-.0673332-.3224297.0109749-.3779297.1552734l-2.3515625 5.9697266c0 .0009766 0 .0009766-.0009766.0009766-.0488281.1269531.0302734.3134766.1552734.3652344l1.2054443.5033569-.3257446.8272705c-.0147705.0375366.0032349.0799561.0404053.09552l.4663086.194458c.0380249.0158691.081665-.0023193.097168-.0404663l.333374-.8214722.4641113.1937866-.3212891.815979c-.0150146.0380249.0037231.0810547.041748.0960693l.4699707.1850586c.0377808.0148926.0805054-.003479.0957642-.0410767l.3254395-.8018188c.7170792.2793427 1.5840549.0896873 2.1141357-.4488525.5371094-.5449219.7167969-1.421875.4365234-2.1337891-.0429688-.1083984-.0976563-.2314453-.1738281-.3476563.4746094-.1630859.8876953-.5146484 1.1064453-.9628906.2998047-.6132813.2392578-1.3701172-.1552734-1.9277344C21.1062355 40.5107841 20.7128639 40.2585869 20.3066139 40.0615044zM21.0835304 42.6027031c-.2041016.4169922-.6376953.7207031-1.1083984.7734375-.1171875.015625-.2099609.0986328-.2382908.2138672-.0244045.1005859.030283.2431641.1152439.3017578.1113281.0761719.1953125.203125.2832031.4238281.2099609.5332031.0751953 1.1904297-.328125 1.5986328-.3974609.4052734-1.0488281.5419922-1.578125.3349609l-2.6835938-1.1210938 2.1943359-5.5703125 1.8359375.7275391c.5332031.2109375 1.0800781.453125 1.3935547.8974609C21.2554054 41.5870781 21.3013039 42.1573906 21.0835304 42.6027031zM14.058445 40.7695122c.4781494-.8760376 1.1204224-1.7049561 1.8747559-2.3924561-2.5855894 1.2202415-3.5816765 4.098835-2.3063965 6.6992798-.0635986-1.0065918.2132568-2.0487061.6468506-2.9353638-.2116699.1422729-.4233398.2845459-.6350098.4268799.2593384-.8043823.6478882-1.5648804 1.1506348-2.2520752C14.5456276 40.4670219 14.3020363 40.6182671 14.058445 40.7695122zM23.2744484 40.0741997c.1120605.0441284.2386475-.0109253.2827759-.1229858s-.0109253-.2386475-.1229858-.2827759-.2386475.0109253-.2827759.1229858S23.1623878 40.0300713 23.2744484 40.0741997zM23.72855 40.9282036c.0949707.0374146.2022705-.0092773.239624-.104187.0374146-.0949707-.0092773-.2022705-.104187-.2396851-.0949707-.0373535-.2022705.0092773-.2396851.104248C23.5869484 40.7835503 23.6335793 40.8908501 23.72855 40.9282036z" class="color000000 svgShape"/><path fill="#ff8066" d="M19.3939552 41.1120415l-.8649292-.3405151c-.0494385-.0195313-.1053467.0047607-.1247559.0542603l-.534668 1.3577271c-.0193481.0490112.0043335.1044312.0531616.1243896l.8518677.3480225c.4290771.1752319.9186401-.0339966 1.0883789-.465271C20.0313454 41.7632256 19.8213234 41.2803154 19.3939552 41.1120415zM18.112278 42.1329155l.336792-.8553467c.0325928.1776733.0943604.3494263.1918945.5013428-.0562134-.0283203-.1124878-.0566406-.1687012-.0849609.0524292.0961304.1048584.1922607.1572876.2884521-.064209-.0318604-.128479-.0637207-.192749-.0955811.1266479.2328491.3412476.4483643.5618896.5952148L18.112278 42.1329155zM18.3843727 43.6757011l-.8648682-.3405762c-.0494385-.0194702-.1053467.0048828-.1247559.0543213l-.534668 1.3577271c-.0193481.0490723.0043335.1044312.0531616.1243896l.8518677.3479614c.4290771.1752319.9186401-.0339966 1.0883789-.46521C19.0218239 44.3269463 18.8118019 43.8440361 18.3843727 43.6757011zM17.0575905 44.7599297l.336792-.8554077c.0325928.1776733.0943604.3494873.1918945.5014648-.0562134-.0283203-.1124268-.0567017-.1687012-.085022.0524292.0961304.1048584.1922607.1572876.2883911-.064209-.0317993-.128479-.0636597-.192688-.09552.1265869.2328491.3411865.4483032.5618286.5951538L17.0575905 44.7599297zM6.0141945 24.8370762c1.0485806 4.1092701 5.2591944 6.538147 9.3261719 5.4980469 1.9873047-.5068359 3.6591797-1.7529297 4.7080078-3.5078125 1.0498047-1.7558594 1.3496094-3.8105469.8447266-5.7861328-1.0400391-4.0791016-5.2265625-6.5478506-9.3261719-5.4990225C7.4955792 16.5804996 4.9601235 20.7125397 6.0141945 24.8370762zM13.4741554 15.8019209c5.5388622 0 8.9872646 6.013423 6.1455078 10.7685537-.9804688 1.640625-2.5439453 2.8056641-4.4023438 3.2802734-3.8349609.9775391-7.7460938-1.3261719-8.71875-5.1367188C5.346992 20.2054729 8.7842922 15.8019209 13.4741554 15.8019209z" class="color000000 svgShape"/><path fill="#ff8066" d="M14.8882179,28.9152012c3.2978516-0.8417969,5.3007813-4.1933594,4.4638672-7.4716797
			c-0.8359375-3.2773438-4.1972656-5.2617188-7.4980469-4.4199219c-3.2978516,0.8417969-5.3007813,4.1933594-4.4638672,7.4716797
			C8.226984,27.7765579,11.5937548,29.7560749,14.8882179,28.9152012z M11.9770851,17.5079746
			c3.0273438-0.7724609,6.1220703,1.0478516,6.890625,4.0585938c0.7685547,3.0117188-1.0722656,6.0908203-4.1025391,6.8642578
			c-3.0322266,0.7685547-6.1220703-1.0478516-6.890625-4.0585938C7.1059914,21.3605137,8.9468117,18.2814121,11.9770851,17.5079746z
			" class="color000000 svgShape"/><path fill="#ff8066" d="M16.216404 18.7877598c.2509384-.0926189.1106529-.4715939-.1399536-.3791504C15.8255129 18.5012302 15.9657984 18.8802032 16.216404 18.7877598zM17.0451393 19.4833164c.2122478-.0784416.0941563-.3997765-.1185913-.3213501C16.714201 19.2403927 16.8323441 19.5617619 17.0451393 19.4833164zM12.1884499 27.7154331c-1.0585938-.4355469-1.9761353-1.206665-2.5873413-2.1745605.1702271-.0032349.3405151-.0064697.5107336-.0097656-.5765905-.3485718-1.0468664-.8705444-1.3335485-1.4802246.1332397.0163574.2664795.0327759.3997192.0491943-.3955688-.6351318-.6595459-1.3167114-.8109131-2.0494995-.2622681 1.1799927-.041687 2.4599609.6004028 3.4841309C10.090724 27.3262043 11.8203154 27.5503254 12.1884499 27.7154331zM10.4202614 22.3580723c.02948.0802002.107666.1241455.1746826.0980225l1.6377563-.6365356c.0675659-.0263062.1463623.0185547.1752319.0997925l.560791 1.574707c.0283813.079834-.0021362.164856-.0686035.1906738l-1.3945313.5420532c-.1928101.0749512-.2803955.322876-.1955566.5537109.067627.1841431.2282104.3088379.3949585.3044434.5613403-.0147705 1.0939941-.126709 1.5946655-.3468018.0681152-.0300293.1497192.012146.1802368.0950317l.7904663 2.1522217c.0294189.0802612.107666.1242065.1746826.0981445l.9276733-.3605957c.0665894-.0259399.097168-.1112061.0684814-.1911621l-.7589722-2.116272c-.0296631-.0828247.0054932-.1685791.0756226-.1920776.4924316-.1654663.9508667-.4966431 1.3846436-.9482422.1099854-.1146851.1403809-.3035889.0773926-.4748535l-.0023804-.0067139c-.0874023-.237854-.3226318-.3634033-.517334-.2761841l-1.3540649.6062622c-.0684814.0306396-.1511841-.0144043-.1806641-.0985107l-.553833-1.5785522c-.0279541-.0796509.0027466-.1641846.0689087-.1899414l1.6047363-.6237183c.0670166-.026001.0974121-.1121826.0679932-.1923828l-.3994751-1.0875244c-.0294189-.0802002-.107666-.1240845-.1746826-.0980835l-4.6902466 1.8231812c-.0670166.026001-.0974731.1121826-.0679932.1923828L10.4202614 22.3580723zM11.3251686 20.848917c-.2573242.0949707-.3766479.3962402-.4442139.6621704-.0142822-.0739136-.0284424-.1478882-.0426636-.2218018-.1026611.2753906-.1826172.5284424-.1694336.8220215l-.3313599-.8978882L11.3251686 20.848917zM7.2436256 50.4535942c.0379639.138855.2401123.138855.2780762 0 .3286743-1.0239868.7079468-1.4032593 1.7317505-1.7445679.1390381-.0379639.1390381-.2401123 0-.2780762-1.0238037-.3286743-1.4030762-.7079468-1.7317505-1.7316284-.0379639-.1391602-.2401123-.1391602-.2780762 0-.3413086 1.0236816-.7205811 1.4029541-1.7443848 1.7316284-.1390381.0379639-.1390381.2401123 0 .2780762C6.5230446 49.0503349 6.902317 49.4296074 7.2436256 50.4535942zM44.4866066 5.3718667c-.0549927-.2016602-.3478394-.2016602-.402832 0-.4944458 1.4829102-1.0439453 2.0324097-2.5270996 2.5085449-.201416.0549927-.201416.3477788 0 .4027715 1.4831543.4945068 2.0326538 1.0439453 2.5270996 2.5273438.0549927.2011719.3478394.2011719.402832 0 .4761353-1.4833984 1.0255737-2.0328369 2.5087891-2.5273438.201355-.0549927.201355-.3477788 0-.4027715C45.5121803 7.4042764 44.9627419 6.8547769 44.4866066 5.3718667zM39.9975319 29.2157993c-1.0718994.2946777-2.0446167.2515869-3.1415405.071228.2602539-.1141357.5205688-.2282715.7808228-.3424072-.8527832.0990601-1.7241821.0357056-2.553772-.1855469.229248-.1256104.4584351-.2512207.6876831-.3768311-1.1177368.1280518-2.269104-.0490723-3.2999878-.4996338C35.0265884 30.0784302 38.6618996 30.1228352 39.9975319 29.2157993zM40.400547 18.2822056c.0765991-.1179199.0167847-.2927246-.133606-.3904419-.1504517-.0977173-.3344727-.0814209-.4110718.036499-.0765991.1178589-.0167847.2926636.133606.3904419C40.1399269 18.4164219 40.3239479 18.4001255 40.400547 18.2822056zM41.4966164 17.7479038c.1655273.1075439.37854.0733643.4758301-.076355s.0420532-.3582764-.1234741-.4658203c-.1654663-.1075439-.37854-.0733643-.4758301.076355S41.3311501 17.6403599 41.4966164 17.7479038zM41.4480324 19.1031284c.1349831-.2076664-.2550316-.4610844-.3900146-.253418-.0563354.0866699-.0147095.2136841.0930176.2836914C41.2587013 19.2033482 41.3916969 19.1898594 41.4480324 19.1031284z" class="color000000 svgShape"/></svg>